<?xml version="1.0" encoding="UTF-8" standalone="no"?>
<!-- Created with Inkscape (http://www.inkscape.org/) -->

<svg
   xmlns:dc="http://purl.org/dc/elements/1.1/"
   xmlns:cc="http://creativecommons.org/ns#"
   xmlns:rdf="http://www.w3.org/1999/02/22-rdf-syntax-ns#"
   xmlns:svg="http://www.w3.org/2000/svg"
   xmlns="http://www.w3.org/2000/svg"
   xmlns:sodipodi="http://sodipodi.sourceforge.net/DTD/sodipodi-0.dtd"
   xmlns:inkscape="http://www.inkscape.org/namespaces/inkscape"
   width="500mm"
   height="500mm"
   viewBox="0 0 500 500"
   version="1.1"
   id="svg1797"
   inkscape:version="0.92.5 (2060ec1f9f, 2020-04-08)"
   sodipodi:docname="asana3.svg">
  <defs
     id="defs1791" />
  <sodipodi:namedview
     id="base"
     pagecolor="#ffffff"
     bordercolor="#666666"
     borderopacity="1.0"
     inkscape:pageopacity="0.0"
     inkscape:pageshadow="2"
     inkscape:zoom="0.35"
     inkscape:cx="1222.2791"
     inkscape:cy="979.43967"
     inkscape:document-units="mm"
     inkscape:current-layer="layer1"
     showgrid="false"
     inkscape:window-width="1366"
     inkscape:window-height="705"
     inkscape:window-x="-8"
     inkscape:window-y="-8"
     inkscape:window-maximized="1" />
  <metadata
     id="metadata1794">
    <rdf:RDF>
      <cc:Work
         rdf:about="">
        <dc:format>image/svg+xml</dc:format>
        <dc:type
           rdf:resource="http://purl.org/dc/dcmitype/StillImage" />
        <dc:title></dc:title>
      </cc:Work>
    </rdf:RDF>
  </metadata>
  <g
     inkscape:label="Layer 1"
     inkscape:groupmode="layer"
     id="layer1"
     transform="translate(0,203)">
    <path
       d="m 473.88637,218.32863 c 0,4.94041 -98.78328,8.94348 -220.64316,8.94348 -121.85658,0 -220.641475,-4.00307 -220.641475,-8.94348 0,-4.93882 98.784895,-8.94343 220.641475,-8.94343 121.85988,0 220.64316,4.00461 220.64316,8.94343"
       style="fill:#e3d7f4;fill-opacity:1;fill-rule:nonzero;stroke:none;stroke-width:1.59683502"
       id="path32"
       inkscape:connector-curvature="0" />
    <path
       d="m 310.20143,25.407101 -6.47699,15.587216 c 0,0 -12.09269,13.700108 -15.60385,24.648981 -3.51445,10.947311 -6.2019,22.58439 -6.2019,22.58439 l 16.9156,-2.919355 29.33904,-47.723893 z"
       style="fill:#f08e70;fill-opacity:1;fill-rule:nonzero;stroke:none;stroke-width:1.59683502"
       id="path36"
       inkscape:connector-curvature="0" />
    <path
       d="m 330.96675,-16.963621 c 0,0 -15.70212,20.2271089 -16.81407,26.5843668 -1.11033,6.3588002 -7.64471,18.6093602 -7.64471,18.6093602 l 20.73468,12.742541 9.42487,-9.8434 z"
       style="fill:#442178;fill-opacity:1;fill-rule:nonzero;stroke:none;stroke-width:1.59683502"
       id="path40"
       inkscape:connector-curvature="0" />
    <path
       d="m 346.90697,-51.848671 v 0 c 6.52287,0.831427 11.14603,6.586144 10.26985,12.790824 l -3.24423,22.96895 c -0.8745,6.2015908 -6.92739,10.5938838 -13.45188,9.7609113 h -10e-4 C 333.9566,-7.1594572 329.33668,-12.915675 330.21118,-19.117265 l 3.24261,-22.967405 c 0.87618,-6.20468 6.93069,-10.597018 13.45355,-9.764001"
       style="fill:#f08e70;fill-opacity:1;fill-rule:evenodd;stroke:none;stroke-width:1.59683502"
       id="path44"
       inkscape:connector-curvature="0" />
    <path
       d="m 342.39693,-41.402862 c 4.18101,13.552163 11.99112,12.301933 16.86978,11.63394 0.0622,-0.0044 0.12632,-0.0089 0.19313,-0.01765 11.06744,-0.890614 11.33274,-5.85283 11.23283,-6.967608 -0.0984,-1.113279 -0.83848,-6.757435 -0.63872,-7.176283 0.19823,-0.420172 2.82337,-0.630566 2.69566,-2.05681 -0.12632,-1.427745 -2.45161,-9.502409 -6.74073,-19.484395 -4.29235,-9.981991 -15.27137,-13.407404 -15.27137,-13.407404 -18.36495,4.846978 -7.05509,26.835058 -11.0101,25.89616 -3.95668,-0.93731 -6.70471,2.158013 -4.63301,6.301203 2.90034,5.815449 -2.8954,12.951214 7.30239,5.276728"
       style="fill:#f08e70;fill-opacity:1;fill-rule:evenodd;stroke:none;stroke-width:1.59683502"
       id="path48"
       inkscape:connector-curvature="0" />
    <path
       d="m 361.74206,-88.581328 c -5.13577,-4.80805 -5.88911,1.18491 -5.88911,1.18491 0,0 -13.21442,-0.09489 -21.20963,1.746934 -7.99349,1.841958 -18.50743,18.861597 -18.50743,18.861597 0,0 -2.72346,4.552725 -2.64649,8.031057 0.0738,3.372494 13.67628,14.607846 19.00859,21.274935 l 0.16389,0.22421 c 1.2086,1.672256 7.57423,-3.518805 6.5425,-6.548762 0,0 -5.22091,-6.142405 -1.95212,-8.53085 0,0 1.96849,-2.57995 5.64674,1.739166 0,0 0.67962,1.353066 1.12342,3.015966 0.74025,-0.608808 3.08543,-1.880885 3.03301,-2.10664 -0.37184,-1.572597 -0.37184,-3.110901 -0.17548,-4.45929 0.01,-0.0035 -0.96786,-13.759249 16.55531,-15.716445 4.11225,-2.483426 3.78632,-13.588003 -1.69334,-18.716788"
       style="fill:#101537;fill-opacity:1;fill-rule:evenodd;stroke:none;stroke-width:1.59683502"
       id="path52"
       inkscape:connector-curvature="0" />
    <path
       d="m 315.27759,66.877683 c 0,0 11.05927,-11.051624 13.77126,-16.770498 2.71038,-5.720468 -7.81995,-39.453047 -8.46517,-48.6596587 -0.6436,-9.2065674 10.19947,-24.6022783 10.19947,-24.6022783 l 26.90711,10.047396 c 0,0 17.06791,15.9344308 21.14737,29.732608 4.07785,13.796676 -4.50032,52.436921 -5.63689,58.426751 -1.13493,5.991366 -7.38595,16.742515 -7.38595,16.742515 z"
       style="fill:#8d5fd3;fill-opacity:1;fill-rule:nonzero;stroke:none;stroke-width:1.59683502"
       id="path56"
       inkscape:connector-curvature="0" />
    <path
       d="m 394.66992,-157.371 c 0.34863,-0.4237 0.66491,-0.86881 0.90237,-1.34839 0.80899,-1.63641 1.03665,-3.27906 0.74512,-5.06028 -0.18198,-1.12573 -1.74085,-1.84037 -2.81514,-1.5056 -0.12297,0.0397 -0.20288,0.10901 -0.31105,0.15889 0.0418,-0.62126 0.0836,-1.24251 0.14902,-1.86218 0.11934,-1.08679 -0.98424,-2.03033 -2.0209,-2.1596 -1.03337,-0.12755 -2.36482,0.50447 -2.54006,1.59127 -0.004,0.0353 -0.0186,0.0715 -0.0232,0.10901 0.14578,-1.00271 -0.28642,-1.96028 -1.31667,-2.36977 -1.06939,-0.42503 -2.16338,-0.009 -2.79714,0.88284 -0.22608,0.31911 -0.43729,0.65705 -0.63381,1.00894 0.004,-1.81084 -0.48637,-3.7991 -2.7431,-3.56558 -4.05983,0.41708 -4.62646,16.97921 -4.59535,24.1321 0.0278,7.15443 0.67474,13.98814 0.67474,13.98814 0,0 -5.13251,20.20998 -8.42753,32.14598 -3.29335,11.936054 -6.54904,33.411851 -6.54904,33.411851 l -15.25666,50.532687 20.94429,10.2560248 10.67442,-46.9407068 c 0,0 5.81376,-9.164506 7.87069,-17.119297 2.05694,-7.956292 4.00084,-60.849399 4.00084,-60.849399 0,0 5.2488,-22.12975 5.32409,-23.80978 0.014,-0.33499 -0.47819,-0.91864 -1.2561,-1.62706"
       style="fill:#f5ac83;fill-opacity:1;fill-rule:nonzero;stroke:none;stroke-width:1.59683502"
       id="path60"
       inkscape:connector-curvature="0" />
    <path
       d="m 340.34511,16.379857 c 0,0 8.84673,15.739793 18.96924,15.906405 10.12088,0.165068 7.91326,-33.6983296 7.91326,-33.6983296 z"
       style="fill:#442178;fill-opacity:1;fill-rule:nonzero;stroke:none;stroke-width:1.59683502"
       id="path64"
       inkscape:connector-curvature="0" />
    <path
       d="m 347.4043,-26.182502 c -0.7877,-0.64928 -12.12699,20.7829534 -12.82467,33.0319248 -0.6993,12.2505602 16.0591,18.2169952 24.09028,10.6810952 8.03123,-7.5359441 11.98456,-34.417697 11.98456,-34.417697 z"
       style="fill:#c6afe9;fill-opacity:1;fill-rule:nonzero;stroke:none;stroke-width:1.59683502"
       id="path68"
       inkscape:connector-curvature="0" />
    <path
       d="m 143.32603,186.55289 c -0.6977,1.15376 -9.94077,2.4788 -14.30517,1.27521 -4.36279,-1.20357 -14.35593,-5.00891 -18.04887,-2.18602 -3.69301,2.82281 -2.04223,9.74527 -2.04223,9.74527 0,0 -17.767166,12.96058 -19.986245,14.58142 -2.220673,1.61928 -11.129648,2.1829 -12.007448,6.30896 7.56444,2.48035 17.454368,-0.73644 17.454368,-0.73644 l 53.013385,-15.19171 z"
       style="fill:#f08e70;fill-opacity:1;fill-rule:nonzero;stroke:none;stroke-width:1.59683502"
       id="path72"
       inkscape:connector-curvature="0" />
    <path
       d="m 383.36289,197.95067 c 0,0 2.35006,5.76875 0.23258,8.86093 -2.11756,3.09538 -2.66125,12.00456 1.67697,12.84067 4.3366,0.8361 19.23783,-3.06576 24.27207,-3.38495 5.03587,-0.3191 19.21166,2.11286 24.14269,0.32087 4.93272,-1.79208 10.61548,-4.00151 10.09958,-5.81854 -0.51752,-1.81702 -10.51064,-0.0733 -10.51064,-0.0733 0,0 -27.42787,-7.99677 -30.00719,-11.66042 -2.57938,-3.66207 -19.90606,-1.08526 -19.90606,-1.08526"
       style="fill:#f08e70;fill-opacity:1;fill-rule:nonzero;stroke:none;stroke-width:1.59683502"
       id="path76"
       inkscape:connector-curvature="0" />
    <path
       d="m 318.13549,63.447449 c 0,0 -12.91964,2.791719 -24.9828,12.972975 -12.06153,10.181309 -13.03924,14.372735 -23.93797,22.346204 -10.89717,7.970312 -43.68024,45.039552 -55.61076,49.679452 -11.92886,4.63834 -76.8105,36.48536 -76.8105,36.48536 1.79325,9.16455 5.49604,16.41242 11.96655,20.88103 0,0 58.52576,-22.56882 73.98221,-26.87548 15.45315,-4.30672 72.63606,-44.67368 82.57353,-56.07879 0.3686,1.96338 19.85196,5.16926 32.55709,3.25571 12.70512,-1.91359 36.0208,-2.28101 36.0208,-2.28101 l 5.37651,76.78073 c 0,0 20.6839,3.68388 29.51592,-3.53283 -2.98386,-0.92177 1.71136,-83.88694 1.2086,-91.06785 -0.50275,-7.179372 -51.37076,-22.912942 -51.37076,-22.912942 0,0 -32.847,-8.040379 -40.48842,-19.652559"
       style="fill:#c6afe9;fill-opacity:1;fill-rule:nonzero;stroke:none;stroke-width:1.59683502"
       id="path80"
       inkscape:connector-curvature="0" />
    <path
       d="m 305.31561,122.85851 c 0,0 -19.52445,-5.7251 -24.86986,-10.53002 0.77298,10.3432 17.55758,16.6771 17.55758,16.6771 z"
       style="fill:#442178;fill-opacity:1;fill-rule:nonzero;stroke:none;stroke-width:1.59683502"
       id="path84"
       inkscape:connector-curvature="0" />
    <path
       d="m 227.02525,172.8287 c 0,0 -11.57675,-0.8268 -16.76658,-2.71855 3.20166,6.8259 16.76658,2.71855 16.76658,2.71855"
       style="fill:#442178;fill-opacity:1;fill-rule:nonzero;stroke:none;stroke-width:1.59683502"
       id="path88"
       inkscape:connector-curvature="0" />
    <path
       d="m 407.36047,112.83827 c 0,0 -5.08665,10.67796 -11.1821,12.54481 4.72474,6.3588 11.1821,-12.54481 11.1821,-12.54481"
       style="fill:#442178;fill-opacity:1;fill-rule:nonzero;stroke:none;stroke-width:1.59683502"
       id="path92"
       inkscape:connector-curvature="0" />
    <path
       d="m 373.89346,123.83321 4.72799,-10.2856 -14.82427,10.55496 z"
       style="fill:#442178;fill-opacity:1;fill-rule:nonzero;stroke:none;stroke-width:1.59683502"
       id="path96"
       inkscape:connector-curvature="0" />
    <path
       d="m 208.08466,151.94435 26.21601,0.36898 -11.20667,-4.46859 13.94485,-0.88286 -11.95671,-4.05288 c 0,0 -13.26029,8.6196 -16.99748,9.03531"
       style="fill:#442178;fill-opacity:1;fill-rule:nonzero;stroke:none;stroke-width:1.59683502"
       id="path100"
       inkscape:connector-curvature="0" />
  </g>
</svg>
