<?xml version="1.0" encoding="UTF-8" standalone="no"?>
<!-- Created with Inkscape (http://www.inkscape.org/) -->

<svg
   xmlns:dc="http://purl.org/dc/elements/1.1/"
   xmlns:cc="http://creativecommons.org/ns#"
   xmlns:rdf="http://www.w3.org/1999/02/22-rdf-syntax-ns#"
   xmlns:svg="http://www.w3.org/2000/svg"
   xmlns="http://www.w3.org/2000/svg"
   xmlns:sodipodi="http://sodipodi.sourceforge.net/DTD/sodipodi-0.dtd"
   xmlns:inkscape="http://www.inkscape.org/namespaces/inkscape"
   width="500mm"
   height="500mm"
   viewBox="0 0 500 500"
   version="1.1"
   id="svg303"
   inkscape:version="0.92.5 (2060ec1f9f, 2020-04-08)"
   sodipodi:docname="eka_padasana.svg">
  <defs
     id="defs297" />
  <sodipodi:namedview
     id="base"
     pagecolor="#ffffff"
     bordercolor="#666666"
     borderopacity="1.0"
     inkscape:pageopacity="0.0"
     inkscape:pageshadow="2"
     inkscape:zoom="0.24748737"
     inkscape:cx="366.58921"
     inkscape:cy="940.7281"
     inkscape:document-units="mm"
     inkscape:current-layer="layer1"
     showgrid="false"
     inkscape:window-width="1366"
     inkscape:window-height="705"
     inkscape:window-x="-8"
     inkscape:window-y="-8"
     inkscape:window-maximized="1" />
  <metadata
     id="metadata300">
    <rdf:RDF>
      <cc:Work
         rdf:about="">
        <dc:format>image/svg+xml</dc:format>
        <dc:type
           rdf:resource="http://purl.org/dc/dcmitype/StillImage" />
        <dc:title />
      </cc:Work>
    </rdf:RDF>
  </metadata>
  <g
     inkscape:label="Layer 1"
     inkscape:groupmode="layer"
     id="layer1"
     transform="translate(0,203)">
    <path
       d="m 177.07003,-14.190548 c -1.0361,-0.321313 -54.51282,5.5764833 -54.51282,5.5764833 0,0 -21.39623,-1.153394 -28.869783,0.768945 -7.472064,1.924029 -40.755451,4.232461 -40.755451,4.232461 0,0 -6.64819,-11.4611723 -9.099359,-9.1924353 -2.449718,2.26869 1.966783,6.8840033 1.966783,6.8840033 0,0 -21.058194,-2.306834 -21.737214,-0.770636 -0.679017,1.539534 8.831553,3.848013 8.831553,3.848013 0,0 -13.246602,-0.38614 -12.907114,1.15344 0.339737,1.53953404 12.907114,2.691284 12.907114,2.691284 0,0 -13.587584,1.923983 -12.907114,3.463516 0.679019,1.53789 13.245151,0.768945 13.245151,0.768945 0,0 -6.112576,2.691283 -5.092576,4.615314 1.018507,1.9223377 23.774269,-3.079068 23.774269,-3.079068 0,0 52.303071,8.4632787 63.173131,8.4632787 10.86716,0 70.79304,-15.48816266 70.79304,-15.48816266 0,0 4.77503,-9.70451704 -8.80961,-13.93538134"
       style="fill:#f08e70;fill-opacity:1;fill-rule:nonzero;stroke:none;stroke-width:1.55728245"
       id="path168"
       inkscape:connector-curvature="0" />
    <path
       d="m 157.19993,-14.959117 -19.69872,-0.384731 c 0,0 -9.17108,-13.078591 -20.03819,-12.308003 -10.86861,0.768946 -23.0704,10.765181 -23.932312,24.0376423 C 92.668755,9.6566543 107.27339,17.347699 107.27339,17.347699 L 164.63544,5.8152653 Z"
       style="fill:#f08e70;fill-opacity:1;fill-rule:nonzero;stroke:none;stroke-width:1.55728245"
       id="path172"
       inkscape:connector-curvature="0" />
    <path
       d="m 124.25503,-9.9600117 13.24664,-5.3842583 c 0,0 -11.20814,-17.692213 -22.07674,-18.07671 -10.86861,-0.386139 -23.434737,12.308003 -27.5103,23.4609683 -4.07552,11.152918 7.132575,20.3851877 7.132575,20.3851877 l 11.547625,0.384261 c 0,0 7.54669,-9.8072997 10.90664,-16.4427077 -0.37748,-0.09442 -5.81258,-6.2493153 -2.07654,-8.9422423 3.73748,-2.691284 8.8301,4.6153133 8.8301,4.6153133"
       style="fill:#101537;fill-opacity:1;fill-rule:nonzero;stroke:none;stroke-width:1.55728245"
       id="path176"
       inkscape:connector-curvature="0" />
    <path
       d="m 112.02913,-34.960514 c -1.01851,0 -8.49206,-29.615766 -28.190766,-26.922836 -19.698707,2.69297 -24.113758,38.461894 -19.019689,51.538842 5.09552,13.0769473 6.452063,49.232011 -0.679018,49.999311 14.944126,14.231986 30.567314,0 29.207825,-14.997641 -1.356585,-15.0009297 -6.791593,-49.232011 1.02,-54.616269 7.813038,-5.384211 10.867108,-0.768946 10.867108,-0.768946 z"
       style="fill:#101537;fill-opacity:1;fill-rule:nonzero;stroke:none;stroke-width:1.55728245"
       id="path180"
       inkscape:connector-curvature="0" />
    <path
       d="m 102.85863,-25.729417 c 0,0 -1.01851,-9.999525 4.41509,-13.076943 5.43356,-3.07743 8.83155,8.07718 8.83155,8.07718 z"
       style="fill:#aa87de;fill-opacity:1;fill-rule:nonzero;stroke:none;stroke-width:1.55728245"
       id="path184"
       inkscape:connector-curvature="0" />
    <path
       d="m 192.32996,19.270602 c 0,0 20.88845,-10.1917487 24.96547,-10.9606937 4.07407,-0.768944 22.41478,2.8835087 22.41478,2.8835087 0,0 -3.2268,-11.92186366 -5.60335,-35.384475 -1.69897,-0.768946 -43.47442,4.230817 -43.47442,4.230817 z"
       style="fill:#f5ac83;fill-opacity:1;fill-rule:nonzero;stroke:none;stroke-width:1.55728245"
       id="path188"
       inkscape:connector-curvature="0" />
    <path
       d="m 431.75308,-5.3316397 c 0,0 11.73347,-0.465529 14.61488,1.164997 2.88143,1.630666 13.99736,27.2724787 13.99736,27.2724787 l 1.64633,8.857734 c 0,0 5.14525,-0.699326 4.94042,-6.759706 -0.20659,-6.060379 -1.02881,-17.0160917 -1.02881,-22.8428137 0,-5.828366 3.91022,-17.4834073 0.4111,-21.4457583 -3.49896,-3.962399 -16.67389,0.233469 -16.67389,0.233469 l -18.11384,-1.398701 z"
       style="fill:#f08e70;fill-opacity:1;fill-rule:nonzero;stroke:none;stroke-width:1.55728245"
       id="path192"
       inkscape:connector-curvature="0" />
    <path
       d="m 469.47537,208.21545 c 0,5.25833 -88.2703,9.51898 -197.1598,9.51898 -108.8895,0 -197.159796,-4.26065 -197.159796,-9.51898 0,-5.25662 88.270296,-9.51891 197.159796,-9.51891 108.8895,0 197.1598,4.26229 197.1598,9.51891"
       style="fill:#e3d7f4;fill-opacity:1;fill-rule:nonzero;stroke:none;stroke-width:1.55728245"
       id="path196"
       inkscape:connector-curvature="0" />
    <path
       d="m 272.89362,176.54263 c 0,0 1.76776,10.50662 -4.41799,14.50877 -6.1843,4.00213 -17.00899,9.75755 -17.00899,9.75755 l -9.71839,2.00026 c 0,0 2.2097,5.50354 6.1843,5.50354 3.97605,0 12.59103,-2.00192 17.22996,-2.25211 4.63896,-0.25039 17.45095,2.00187 22.31087,0.50048 4.85848,-1.50144 -2.65166,-31.51829 -2.65166,-31.51829 z"
       style="fill:#f5ac83;fill-opacity:1;fill-rule:nonzero;stroke:none;stroke-width:1.55728245"
       id="path200"
       inkscape:connector-curvature="0" />
    <path
       d="m 283.69333,18.501986 78.79628,-14.2303417 83.08112,-9.590178 -1.56727,-13.8724333 c 0,0 -34.81263,-10.383973 -52.47578,-9.999524 -17.66019,0.38473 -33.62286,10.960693 -33.62286,10.960693 l -81.00457,-9.422804 z"
       style="fill:#442178;fill-opacity:1;fill-rule:nonzero;stroke:none;stroke-width:1.55728245"
       id="path204"
       inkscape:connector-curvature="0" />
    <path
       d="m 160.59692,13.502928 c 0,0 12.90562,14.230342 24.45469,14.230342 11.54764,0 17.32073,-9.999525 17.32073,-9.999525 l -1.01852,-38.461897 -25.81277,-3.079068 c 0,0 -20.71722,2.692928 -21.73721,5.385855 -1.01851,2.691331 2.02971,15.8643903 2.02971,15.8643903 z"
       style="fill:#aa87de;fill-opacity:1;fill-rule:nonzero;stroke:none;stroke-width:1.55728245"
       id="path208"
       inkscape:connector-curvature="0" />
    <path
       d="m 174.52196,-13.421744 c -1.03465,-0.321313 -56.0406,18.0767103 -56.0406,18.0767103 0,0 -21.396229,-1.153394 -28.868292,0.770589 -7.472105,1.922339 -40.756944,4.230817 -40.756944,4.230817 0,0 -6.64819,-11.461172 -9.097907,-9.19248196 -2.45117,2.26873696 1.965331,6.88400396 1.965331,6.88400396 0,0 -21.058194,-2.306788 -21.737214,-0.768945 -0.679017,1.537889 8.831595,3.8463667 8.831595,3.8463667 0,0 -13.246644,-0.38426 -12.907114,1.153394 0.339322,1.539582 12.907114,2.692975 12.907114,2.692975 0,0 -13.587584,1.922338 -12.907114,3.461872 0.679018,1.53789 13.246602,0.768946 13.246602,0.768946 0,0 -6.114026,2.692927 -5.094069,4.615313 1.018549,1.922338 23.774269,-3.077424 23.774269,-3.077424 0,0 52.304523,8.461634 63.173133,8.461634 10.86715,0 70.79303,-15.488161 70.79303,-15.488161 0,0 6.30432,-22.2031467 -7.28182,-26.435609"
       style="fill:#f5ac83;fill-opacity:1;fill-rule:nonzero;stroke:none;stroke-width:1.55728245"
       id="path212"
       inkscape:connector-curvature="0" />
    <path
       d="m 232.40743,-24.960661 c 0,1.153441 1.35949,35.770615 1.35949,35.770615 l 18.34067,4.999762 12.56617,70.001694 7.64181,96.73057 13.75587,0.96117 c 0,0 6.45211,-56.53856 7.13258,-70.38445 0.67902,-13.845893 -7.47352,-33.462137 -7.47352,-33.462137 0,0 8.15254,-73.8480157 6.79305,-93.078166 -1.35804,-19.231748 -20.03824,-20.385188 -33.62288,-19.231748 -13.58758,1.155039 -26.49324,7.69269 -26.49324,7.69269"
       style="fill:#aa87de;fill-opacity:1;fill-rule:nonzero;stroke:none;stroke-width:1.55728245"
       id="path216"
       inkscape:connector-curvature="0" />
  </g>
</svg>
