<?xml version="1.0" encoding="UTF-8" standalone="no"?>
<!-- Created with Inkscape (http://www.inkscape.org/) -->

<svg
   xmlns:dc="http://purl.org/dc/elements/1.1/"
   xmlns:cc="http://creativecommons.org/ns#"
   xmlns:rdf="http://www.w3.org/1999/02/22-rdf-syntax-ns#"
   xmlns:svg="http://www.w3.org/2000/svg"
   xmlns="http://www.w3.org/2000/svg"
   xmlns:sodipodi="http://sodipodi.sourceforge.net/DTD/sodipodi-0.dtd"
   xmlns:inkscape="http://www.inkscape.org/namespaces/inkscape"
   width="500"
   height="500"
   viewBox="0 0 132.29166 132.29167"
   version="1.1"
   id="svg849"
   inkscape:version="0.92.5 (2060ec1f9f, 2020-04-08)"
   sodipodi:docname="kumbhakasana-STEP6.svg">
  <defs
     id="defs843" />
  <sodipodi:namedview
     id="base"
     pagecolor="#ffffff"
     bordercolor="#666666"
     borderopacity="1.0"
     inkscape:pageopacity="0.0"
     inkscape:pageshadow="2"
     inkscape:zoom="1.4"
     inkscape:cx="195.18246"
     inkscape:cy="234.51844"
     inkscape:document-units="mm"
     inkscape:current-layer="layer1"
     showgrid="false"
     inkscape:lockguides="true"
     units="px"
     showguides="false"
     inkscape:window-width="1366"
     inkscape:window-height="705"
     inkscape:window-x="-8"
     inkscape:window-y="-8"
     inkscape:window-maximized="1"
     inkscape:snap-nodes="true"
     inkscape:snap-others="true">
    <sodipodi:guide
       position="0.75595238,85.422619"
       orientation="0,793.70079"
       id="guide907"
       inkscape:locked="true" />
    <sodipodi:guide
       position="182.94048,85.422619"
       orientation="-1122.5197,0"
       id="guide909"
       inkscape:locked="true" />
    <sodipodi:guide
       position="-0.75595238,180.67262"
       orientation="0,-793.70079"
       id="guide911"
       inkscape:locked="true" />
    <sodipodi:guide
       position="18.89881,257.77976"
       orientation="1122.5197,0"
       id="guide913"
       inkscape:locked="true" />
  </sodipodi:namedview>
  <metadata
     id="metadata846">
    <rdf:RDF>
      <cc:Work
         rdf:about="">
        <dc:format>image/svg+xml</dc:format>
        <dc:type
           rdf:resource="http://purl.org/dc/dcmitype/StillImage" />
        <dc:title></dc:title>
      </cc:Work>
    </rdf:RDF>
  </metadata>
  <g
     inkscape:label="Layer 1"
     inkscape:groupmode="layer"
     id="layer1"
     transform="translate(0,-164.70832)">
    <g
       id="g102"
       transform="matrix(0.43354399,0,0,-0.45331482,107.62723,219.74085)">
      <path
         d="m 0,0 10.212,6.499 c 0,0 2.321,-8.356 5.339,-9.284 3.016,-0.929 7.194,1.856 7.194,1.856 0,0 0.929,-1.392 2.089,-0.928 1.16,0.464 3.481,4.874 5.105,5.57 1.625,0.697 7.196,4.178 8.356,6.499 1.161,2.553 6.499,16.478 -3.249,22.048 C 25.298,37.831 15.782,34.117 11.604,30.171 7.427,26.226 5.803,18.103 5.803,18.103 L -7.194,12.997 Z"
         style="fill:#f5ac83;fill-opacity:1;fill-rule:nonzero;stroke:none"
         id="path104"
         inkscape:connector-curvature="0" />
    </g>
    <g
       id="g106"
       transform="matrix(0.43354399,0,0,-0.45331482,120.90915,263.74516)"
       style="fill:#e3d7f4">
      <path
         d="m 0,0 c 0,-3.172 -60.319,-5.744 -134.729,-5.744 -74.408,0 -134.728,2.572 -134.728,5.744 0,3.173 60.32,5.745 134.728,5.745 C -60.319,5.745 0,3.173 0,0"
         style="fill:#e3d7f4;fill-opacity:1;fill-rule:nonzero;stroke:none"
         id="path108"
         inkscape:connector-curvature="0" />
    </g>
    <g
       id="g110"
       transform="matrix(0.43354399,0,0,-0.45331482,98.269621,228.36825)">
      <path
         d="m 0,0 c 0,0 0,-12.997 0.231,-15.318 0.233,-2.321 10.91,-59.647 10.91,-59.647 0,0 8.587,-2.547 12.764,-1.85 4.178,0.696 -4.41,2.314 -4.41,2.314 0,0 12.301,-0.58 14.622,0.348 2.321,0.928 -11.14,1.622 -10.444,1.39 0.696,-0.233 11.14,-0.233 12.301,0.696 1.161,0.928 -10.212,1.857 -10.212,1.857 0,0 9.748,-0.935 9.748,0.226 0,1.16 -19.264,2.327 -19.264,2.327 0,0 0.464,36.325 0.696,42.824 0.233,6.498 -3.481,12.997 -3.481,12.997 l 0.464,17.174 z"
         style="fill:#f08e70;fill-opacity:1;fill-rule:nonzero;stroke:none"
         id="path112"
         inkscape:connector-curvature="0" />
    </g>
    <g
       id="g114"
       transform="matrix(0.43354399,0,0,-0.45331482,101.59022,230.26206)">
      <path
         d="m 0,0 c 0,0 0,-12.997 0.231,-15.318 0.233,-2.321 10.909,-59.647 10.909,-59.647 0,0 8.588,-2.547 12.765,-1.85 4.178,0.696 -4.41,2.314 -4.41,2.314 0,0 12.301,-0.58 14.622,0.348 2.321,0.929 -11.14,1.622 -10.444,1.39 0.696,-0.232 11.14,-0.232 12.301,0.696 1.16,0.928 -10.212,1.857 -10.212,1.857 0,0 9.748,-0.935 9.748,0.226 0,1.16 -19.264,2.327 -19.264,2.327 0,0 0.464,36.325 0.696,42.824 0.232,6.498 -3.481,12.997 -3.481,12.997 l 0.464,17.174 z"
         style="fill:#f5ac83;fill-opacity:1;fill-rule:nonzero;stroke:none"
         id="path116"
         inkscape:connector-curvature="0" />
    </g>
    <g
       id="g118"
       transform="matrix(0.43354399,0,0,-0.45331482,21.595849,250.15234)">
      <path
         d="m 0,0 c 0,0 -8.587,-2.553 -9.979,-2.785 -1.393,-0.232 -8.82,-0.696 -9.052,-3.249 -0.232,-2.553 3.017,-8.123 3.017,-9.748 0,-1.625 -2.785,-9.283 -0.928,-11.837 1.857,-2.553 7.891,-1.624 8.588,-1.16 0.696,0.464 -2.554,2.785 -2.554,2.785 0,0 2.554,15.33 3.25,16.259 0.696,0.928 8.703,3.829 8.703,3.829 z"
         style="fill:#f08e70;fill-opacity:1;fill-rule:nonzero;stroke:none"
         id="path120"
         inkscape:connector-curvature="0" />
    </g>
    <g
       id="g126"
       transform="matrix(0.43354399,0,0,-0.45331482,83.780183,225.21186)">
      <path
         d="m 0,0 -6.499,-1.161 c 0,0 1.393,-15.318 7.195,-20.423 1.16,-0.465 6.731,2.785 6.731,2.785 z"
         style="fill:#f08e70;fill-opacity:1;fill-rule:nonzero;stroke:none"
         id="path128"
         inkscape:connector-curvature="0" />
    </g>
    <g
       id="g130"
       transform="matrix(0.43354399,0,0,-0.45331482,107.92911,230.05155)"
       style="fill:#aa87de">
      <path
         d="m 0,0 -16.014,-4.642 c 0,0 -2.321,-4.177 -7.426,-3.945 -5.107,0.232 -11.605,3.481 -15.086,2.553 -3.482,-0.929 -10.213,-5.106 -10.213,-5.106 l -9.516,23.209 c 0,0 11.141,1.392 14.855,3.017 3.712,1.624 29.475,19.959 35.509,20.656 C -1.856,36.438 1.161,31.1 1.625,25.066 2.089,19.031 0,0 0,0"
         style="fill:#aa87de;fill-opacity:1;fill-rule:nonzero;stroke:none"
         id="path132"
         inkscape:connector-curvature="0" />
    </g>
    <g
       id="g134"
       transform="matrix(0.43354399,0,0,-0.45331482,101.1372,225.05401)"
       style="fill:#442178">
      <path
         d="M 0,0 0.696,-16.362 -7.078,-2.205 Z"
         style="fill:#442178;fill-opacity:1;fill-rule:nonzero;stroke:none"
         id="path136"
         inkscape:connector-curvature="0" />
    </g>
    <g
       id="g138"
       transform="matrix(0.43354399,0,0,-0.45331482,91.226219,232.78694)"
       style="fill:#442178">
      <path
         d="m 0,0 c 1.43,0.381 3.372,0.054 5.516,-0.476 -1.984,1.778 -7.352,6.377 -9.23,5.814 -2.321,-0.696 -7.89,-5.57 -7.89,-5.57 l 1.391,-4.874 c 0,0 2.097,1.488 4.95,2.82 C -3.422,-1.319 -1.436,-0.383 0,0"
         style="fill:#442178;fill-opacity:1;fill-rule:nonzero;stroke:none"
         id="path140"
         inkscape:connector-curvature="0" />
    </g>
    <g
       id="g142"
       transform="matrix(0.43354399,0,0,-0.45331482,114.9725,212.79705)">
      <path
         d="m 0,0 c 0,0 0.929,4.874 3.946,4.178 3.017,-0.697 2.089,-5.106 2.089,-5.106 0,0 2.32,-1.161 5.802,0.696 3.481,1.857 9.98,0.696 10.212,-2.553 2.785,-2.321 5.106,11.14 2.089,17.175 C 21.121,20.424 11.845,22.779 3.481,21.584 -10.327,19.611 -11.372,2.205 -11.372,2.205 -11.372,2.205 -6.034,0.232 0,0"
         style="fill:#101537;fill-opacity:1;fill-rule:nonzero;stroke:none"
         id="path144"
         inkscape:connector-curvature="0" />
    </g>
    <g
       id="g146"
       transform="matrix(0.43354399,0,0,-0.45331482,117.68341,204.69583)">
      <path
         d="M 0,0 C 0,0 -7.806,12.112 1.615,13.728 11.036,15.343 15.881,6.729 7.806,0 Z"
         style="fill:#101537;fill-opacity:1;fill-rule:nonzero;stroke:none"
         id="path148"
         inkscape:connector-curvature="0" />
    </g>
    <g
       id="g150"
       transform="matrix(0.43354399,0,0,-0.45331482,123.23988,206.19566)">
      <path
         d="M 0,0 C 0,0 6.147,10.797 11.139,4.239 16.13,-2.32 11.477,-9.458 3.112,-5.968 2.897,-5.556 0,0 0,0"
         style="fill:#101537;fill-opacity:1;fill-rule:nonzero;stroke:none"
         id="path152"
         inkscape:connector-curvature="0" />
    </g>
    <g
       id="g154"
       transform="matrix(0.43354399,0,0,-0.45331482,18.549596,249.98302)">
      <path
         d="m 0,0 c 0,0 -9.357,-3.185 -10.883,-3.501 -1.525,-0.316 -9.693,-1.148 -9.84,-3.973 -0.145,-2.825 3.678,-8.826 3.748,-10.617 0.07,-1.791 -2.671,-10.356 -0.513,-13.09 2.158,-2.735 8.77,-1.451 9.518,-0.909 0.747,0.542 -2.935,2.96 -2.935,2.96 0,0 2.786,13.948 3.513,15.002 0.728,1.053 9.042,4.711 9.042,4.711 z"
         style="fill:#f5ac83;fill-opacity:1;fill-rule:nonzero;stroke:none"
         id="path156"
         inkscape:connector-curvature="0" />
    </g>
    <g
       id="g158"
       transform="matrix(0.43354399,0,0,-0.45331482,81.063348,224.89621)"
       style="fill:#442178">
      <path
         d="m 0,0 c 0,0 8.587,-22.049 9.516,-24.138 -4.411,-5.106 -25.531,-10.675 -33.421,-12.3 -7.892,-1.625 -48.043,-11.134 -48.043,-11.134 -68.662,-16.766 -69.137,-18.268 -73.225,-18.922 0,0.464 -3.481,9.748 -3.481,9.748 0,0 34.466,19.612 43.517,21.7 9.051,2.089 27.851,2.327 27.851,2.327 0,0 36.67,23.203 45.025,27.149 8.356,3.945 16.015,4.409 20.193,3.945 C -7.892,-2.089 0,0 0,0"
         style="fill:#442178;fill-opacity:1;fill-rule:nonzero;stroke:none"
         id="path160"
         inkscape:connector-curvature="0" />
    </g>
    <g
       id="g162"
       transform="matrix(0.43354399,0,0,-0.45331482,49.820259,243.51844)"
       style="fill:#aa87de">
      <path
         d="M 0,0 C 0,0 -9.399,0 -12.185,-1.044 -14.561,-1.936 -61.27,-16 -74.941,-20.113 c 0.9,-2.456 1.833,-5.06 1.833,-5.301 4.087,0.654 4.562,2.156 73.224,18.922 0,0 40.152,9.509 48.043,11.134 C 56.05,6.267 77.17,11.836 81.58,16.943 81.167,17.871 79.242,22.74 77.23,27.865 71.454,26.721 61.531,24.712 50.479,22.281 33.073,18.451 0,0 0,0"
         style="fill:#aa87de;fill-opacity:1;fill-rule:nonzero;stroke:none"
         id="path164"
         inkscape:connector-curvature="0" />
    </g>
    <path
       style="fill:none;stroke:#000000;stroke-width:0.26458332px;stroke-linecap:butt;stroke-linejoin:miter;stroke-opacity:1"
       d="m 81.453867,219.32588 c -0.705979,1.51625 -0.616844,2.76745 0.188989,3.77976 -1.024638,-1.09965 -0.647552,-2.43291 -0.188989,-3.77976 z"
       id="path950"
       inkscape:connector-curvature="0"
       sodipodi:nodetypes="ccc" />
    <path
       style="fill:none;stroke:#000000;stroke-width:0.26458332px;stroke-linecap:butt;stroke-linejoin:miter;stroke-opacity:1"
       d="m 81.642854,223.10564 v 0 l -1.161317,-0.80749 z"
       id="path952"
       inkscape:connector-curvature="0" />
    <path
       style="fill:none;stroke:#000000;stroke-width:0.27863306px;stroke-linecap:butt;stroke-linejoin:miter;stroke-opacity:1"
       d="m 81.642854,223.10564 -0.0581,-1.24433 z"
       id="path954"
       inkscape:connector-curvature="0" />
    <text
       xml:space="preserve"
       style="font-style:normal;font-weight:normal;font-size:7.70610762px;line-height:1.25;font-family:sans-serif;letter-spacing:0px;word-spacing:0px;fill:#000000;fill-opacity:1;stroke:none;stroke-width:0.19265269"
       x="22.446817"
       y="232.30684"
       id="text958"
       transform="matrix(1.008768,-0.14849601,0.18359942,0.96428142,0,0)"><tspan
         sodipodi:role="line"
         id="tspan956"
         x="22.446817"
         y="232.30684"
         style="stroke-width:0.19265269">STEP 6</tspan></text>
  </g>
</svg>
