<?xml version="1.0" encoding="UTF-8" standalone="no"?>
<!-- Created with Inkscape (http://www.inkscape.org/) -->

<svg
   xmlns:dc="http://purl.org/dc/elements/1.1/"
   xmlns:cc="http://creativecommons.org/ns#"
   xmlns:rdf="http://www.w3.org/1999/02/22-rdf-syntax-ns#"
   xmlns:svg="http://www.w3.org/2000/svg"
   xmlns="http://www.w3.org/2000/svg"
   xmlns:sodipodi="http://sodipodi.sourceforge.net/DTD/sodipodi-0.dtd"
   xmlns:inkscape="http://www.inkscape.org/namespaces/inkscape"
   width="500mm"
   height="500mm"
   viewBox="0 0 500 500"
   version="1.1"
   id="svg1955"
   inkscape:version="0.92.5 (2060ec1f9f, 2020-04-08)"
   sodipodi:docname="asana4.svg">
  <defs
     id="defs1949" />
  <sodipodi:namedview
     id="base"
     pagecolor="#ffffff"
     bordercolor="#666666"
     borderopacity="1.0"
     inkscape:pageopacity="0.0"
     inkscape:pageshadow="2"
     inkscape:zoom="0.24748737"
     inkscape:cx="985.60126"
     inkscape:cy="921.28961"
     inkscape:document-units="mm"
     inkscape:current-layer="layer1"
     showgrid="false"
     inkscape:window-width="1366"
     inkscape:window-height="705"
     inkscape:window-x="-8"
     inkscape:window-y="-8"
     inkscape:window-maximized="1" />
  <metadata
     id="metadata1952">
    <rdf:RDF>
      <cc:Work
         rdf:about="">
        <dc:format>image/svg+xml</dc:format>
        <dc:type
           rdf:resource="http://purl.org/dc/dcmitype/StillImage" />
        <dc:title></dc:title>
      </cc:Work>
    </rdf:RDF>
  </metadata>
  <g
     inkscape:label="Layer 1"
     inkscape:groupmode="layer"
     id="layer1"
     transform="translate(0,203)">
    <path
       d="m 487.9894,234.28163 c 0,6.06427 -103.60435,10.98149 -231.41149,10.98149 -127.80374,0 -231.409818,-4.91722 -231.409818,-10.98149 0,-6.06616 103.606078,-10.98338 231.409818,-10.98338 127.80714,0 231.41149,4.91722 231.41149,10.98338"
       style="fill:#e3d7f4;fill-opacity:1;fill-rule:nonzero;stroke:none;stroke-width:1.81211066"
       id="path224"
       inkscape:connector-curvature="0" />
    <path
       d="m 232.35105,233.79893 -3.76329,-20.57686 c 0,0 -10.58216,0.99222 -15.66457,1.99018 -5.08239,0.99987 -24.21657,3.99377 -27.50404,3.99377 -3.28922,0 -9.56881,0.99991 -13.15517,4.32645 -3.58808,3.32844 -6.8773,12.64663 -2.69148,16.30775 4.18581,3.65923 12.45266,1.25799 16.74149,0.68251 5.08416,-0.68251 46.03706,-6.7238 46.03706,-6.7238"
       style="fill:#f5ac83;fill-opacity:1;fill-rule:nonzero;stroke:none;stroke-width:1.81211066"
       id="path228"
       inkscape:connector-curvature="0" />
    <path
       d="m 264.69548,227.21311 5.29711,-20.15438 c 0,0 10.46882,1.97491 15.45847,3.44316 4.9896,1.46831 23.8318,6.23444 27.10899,6.54036 3.27719,0.30565 9.45888,1.88695 12.78583,5.53659 3.32359,3.64963 5.90002,13.24123 1.4531,16.49894 -4.44513,3.25777 -12.50242,0.0938 -16.73463,-0.87749 -5.01371,-1.15475 -45.36887,-10.98718 -45.36887,-10.98718"
       style="fill:#f08e70;fill-opacity:1;fill-rule:nonzero;stroke:none;stroke-width:1.81211066"
       id="path232"
       inkscape:connector-curvature="0" />
    <path
       d="m 210.49863,139.26869 -9.43313,13.26989 c 0,0 -44.90681,-13.53756 -52.67899,-12.205 -7.77388,1.33061 -22.90604,11.1 -17.88031,25.51695 5.02403,14.41701 35.75886,30.93893 49.03255,37.27085 16.74325,7.98754 49.04799,10.10009 49.04799,10.10009 l 4.6908,23.73519 c 0,0 67.74587,-17.19483 84.19022,-24.51709 16.4444,-7.32036 50.27956,-32.55058 54.21627,-36.38376 6.37746,-6.21145 -0.10122,-36.27284 -12.06101,-36.94006 -11.95974,-0.66532 -58.89851,12.97931 -58.89851,12.97931 l -7.17443,-11.98135 z"
       style="fill:#442178;fill-opacity:1;fill-rule:nonzero;stroke:none;stroke-width:1.81211066"
       id="path236"
       inkscape:connector-curvature="0" />
    <path
       d="m 105.57858,151.9308 c 0,0 1.79489,-4.3264 3.88867,-4.99172 2.09033,-0.66533 3.28747,-0.33276 3.28747,-0.33276 z m 83.22839,-97.452773 -24.81602,40.155715 c 0,0 -15.34853,8.320218 -20.72979,13.977278 -5.37955,5.65707 -24.82629,34.0016 -24.82629,34.0016 0,0 -7.17443,-3.32844 -11.36025,-2.32857 -4.18581,0.99796 -8.072773,13.64269 -8.072773,13.64269 0,0 -15.84666,13.97728 -14.649464,16.3078 1.195428,2.32858 5.592505,-2.51213 5.592505,-2.51213 0,0 -5.295366,6.83664 -3.799331,8.16919 1.496036,1.3306 6.875583,-1.6633 6.875583,-1.6633 0,0 -2.689773,4.32451 -0.896587,5.65707 1.794887,1.3306 12.856277,-3.99377 17.938687,-7.32225 5.08241,-3.32654 13.66529,-16.03056 13.66529,-16.03056 l 48.63403,-35.94209 31.09388,-40.821043 z"
       style="fill:#f5ac83;fill-opacity:1;fill-rule:nonzero;stroke:none;stroke-width:1.81211066"
       id="path240"
       inkscape:connector-curvature="0" />
    <path
       d="m 397.00827,146.60606 c 0,0 1.19548,-0.33274 3.28751,0.33274 2.09374,0.66534 3.88692,4.99174 3.88692,4.99174 z m -95.48692,-64.173853 35.87907,38.159783 48.63234,35.94019 c 0,0 8.58287,12.70402 13.66528,16.03055 5.0824,3.32849 16.1455,8.65286 17.94043,7.32225 1.79319,-1.33254 -0.89834,-5.65705 -0.89834,-5.65705 0,0 5.3813,2.9939 6.87734,1.66329 1.49429,-1.33065 -3.80108,-8.16919 -3.80108,-8.16919 0,0 4.39878,4.8407 5.59426,2.51213 1.19544,-2.33052 -14.6495,-16.30591 -14.6495,-16.30591 0,0 -3.88693,-12.64662 -8.07274,-13.64459 -4.18581,-0.99986 -11.362,2.32858 -11.362,2.32858 0,0 -19.44499,-28.34453 -24.8263,-34.0016 -5.38125,-5.65705 -20.72977,-13.977276 -20.72977,-13.977276 l -29.89668,-39.7122 z"
       style="fill:#f5ac83;fill-opacity:1;fill-rule:nonzero;stroke:none;stroke-width:1.81211066"
       id="path244"
       inkscape:connector-curvature="0" />
    <path
       d="m 293.85959,77.440044 7.968,8.436847 17.63292,-28.736464 c 0,0 -13.04348,-26.954642 -20.81737,-31.613735 -7.77388,-4.659094 -39.76433,-12.646677 -39.76433,-12.646677 h -5.89141 -2.18137 -5.89135 c 0,0 -31.99046,7.987583 -39.76263,12.646677 -7.77559,4.659093 -24.41752,39.601319 -24.41752,39.601319 L 199.47019,88.19977 209.9356,77.440044 c 0,0 5.97899,27.621926 6.57669,34.276946 0.59774,6.65503 -9.18233,29.60442 -9.18233,29.60442 32.07975,16.58305 61.83216,16.87944 89.13352,0 0,0 -9.78007,-22.94939 -9.18234,-29.60442 0.59945,-6.65502 6.57845,-34.276946 6.57845,-34.276946"
       style="fill:#aa87de;fill-opacity:1;fill-rule:nonzero;stroke:none;stroke-width:1.81211066"
       id="path248"
       inkscape:connector-curvature="0" />
    <path
       d="m 164.03938,156.98946 c 0,0 0.64926,0.2352 1.83783,0.67488 10.4826,3.87909 62.81119,23.70456 80.5335,39.24574 -14.35061,-29.61785 -81.72207,-39.68542 -81.72207,-39.68542"
       style="fill:#170b28;fill-opacity:1;fill-rule:nonzero;stroke:none;stroke-width:1.81211066"
       id="path252"
       inkscape:connector-curvature="0" />
    <path
       d="m 330.7227,159.63869 c 0.89489,0.0542 -102.13581,53.5824 -102.13581,53.5824 0,0 74.62836,-55.24758 102.13581,-53.5824"
       style="fill:#170b28;fill-opacity:1;fill-rule:nonzero;stroke:none;stroke-width:1.81211066"
       id="path256"
       inkscape:connector-curvature="0" />
    <path
       d="m 239.34909,-1.7853005 -0.44842,20.9515595 c 0,0 0.84163,14.369205 12.90955,14.369205 12.06447,0 13.99164,-14.369205 13.99164,-14.369205 l -4.46751,-22.0336339 z"
       style="fill:#f08e70;fill-opacity:1;fill-rule:nonzero;stroke:none;stroke-width:1.81211066"
       id="path260"
       inkscape:connector-curvature="0" />
    <path
       d="m 276.54591,-24.015873 c -1.2727,-0.03793 -2.50597,0.355508 -3.60696,1.028532 0.14753,-0.91001 0.16992,-1.864027 0.18015,-2.609616 0.0292,-1.929006 -0.14071,-3.831293 -0.49297,-5.720142 -0.0998,-0.535427 -0.23857,-1.057253 -0.36565,-1.582982 -0.33156,-5.161896 -0.88451,-10.241584 -1.79829,-11.988987 -2.08862,-3.993764 -35.07528,-3.106677 -38.41432,3.104779 -3.34243,6.213408 -1.14908,21.075825 -1.14908,21.075825 0,0 -4.28026,-6.433215 -5.11502,-0.22165 -0.83476,6.213406 6.67976,11.0942583 6.67976,11.0942583 0,0 6.16279,21.8673147 18.73912,22.0259927 11.87209,0.151199 17.74116,-12.48794347 19.41753,-20.9955102 0.37247,-0.2043075 0.73685,-0.4227058 1.09242,-0.6710729 1.21262,-0.8526749 2.34282,-1.9060819 3.27549,-3.1200629 2.02332,-2.630644 3.25484,-5.764146 3.53656,-9.216845 0.0978,-1.208291 -0.98764,-2.173741 -1.97869,-2.20241"
       style="fill:#f5ac83;fill-opacity:1;fill-rule:nonzero;stroke:none;stroke-width:1.81211066"
       id="path264"
       inkscape:connector-curvature="0" />
    <path
       d="m 230.84986,-21.601839 c 0,0 -0.63383,-18.378251 6.03397,-21.559497 6.66943,-3.181301 12.06616,0.35388 17.4646,-0.707384 5.39844,-1.061048 8.87832,-2.192871 13.28912,0.309985 4.41084,2.504482 5.74885,21.668481 5.75571,20.752725 0.004,-0.420539 2.21746,-1.229317 2.21746,-1.229317 0,0 2.3823,-27.048344 1.19544,-30.1722 -4.38505,-11.535932 -21.37734,-14.401721 -23.91769,-20.410549 -0.31793,1.412816 -7.43209,7.421644 -13.78208,8.83641 -6.35171,1.412815 -11.11462,8.129027 -12.70171,13.78419 -1.58879,5.65511 1.36892,28.849236 1.36892,28.849236 z"
       style="fill:#101537;fill-opacity:1;fill-rule:nonzero;stroke:none;stroke-width:1.81211066"
       id="path268"
       inkscape:connector-curvature="0" />
    <path
       d="m 214.03621,144.54591 7.35823,-30.61009 -6.77597,-45.258375 -4.68395,8.76184 c 0,0 5.98076,27.621915 6.57675,34.278845 0.59944,6.65503 -9.18063,29.60253 -9.18063,29.60253 2.24666,1.16238 4.48125,2.22343 6.70557,3.22525"
       style="fill:#442178;fill-opacity:1;fill-rule:nonzero;stroke:none;stroke-width:1.81211066"
       id="path272"
       inkscape:connector-curvature="0" />
    <path
       d="m 293.85959,77.440044 0.46545,0.493157 -0.0774,-0.493157 -4.68564,-8.76184 -6.77593,45.256486 7.42694,30.89302 c 2.09719,-1.08213 4.18235,-2.22728 6.25032,-3.5063 0,0 -9.78001,-22.94939 -9.18232,-29.60442 0.59949,-6.65502 6.57844,-34.276946 6.57844,-34.276946"
       style="fill:#442178;fill-opacity:1;fill-rule:nonzero;stroke:none;stroke-width:1.81211066"
       id="path276"
       inkscape:connector-curvature="0" />
  </g>
</svg>
